<svg id="visual" viewBox="0 0 960 540" width="960" height="540" xmlns="http://www.w3.org/2000/svg" xmlns:xlink="http://www.w3.org/1999/xlink" version="1.1"><rect width="960" height="540" fill="#ffffff"></rect><g><g transform="translate(845 220)"><path d="M0 -144L84.7 -116.5L137 -44.5L137 44.5L84.7 116.5L0 144L-84.7 116.5L-137 44.5L-137 -44.5L-84.7 -116.5Z" fill="#0563bb"></path></g><g transform="translate(2 104)"><path d="M0 -109L64.1 -88.2L103.7 -33.7L103.7 33.7L64.1 88.2L0 109L-64.1 88.2L-103.7 33.7L-103.7 -33.7L-64.1 -88.2Z" fill="#0563bb"></path></g><g transform="translate(25 425)"><path d="M0 -118L69.4 -95.5L112.2 -36.5L112.2 36.5L69.4 95.5L0 118L-69.4 95.5L-112.2 36.5L-112.2 -36.5L-69.4 -95.5Z" fill="#0563bb"></path></g></g></svg>