<svg id="visual" viewBox="0 0 960 540" width="960" height="540" xmlns="http://www.w3.org/2000/svg" xmlns:xlink="http://www.w3.org/1999/xlink" version="1.1"><rect width="960" height="540" fill="#ffffff"></rect><g><g transform="translate(310 148)"><path d="M0 -144L72 -124.7L124.7 -72L144 0L124.7 72L72 124.7L0 144L-72 124.7L-124.7 72L-144 0L-124.7 -72L-72 -124.7Z" fill="#f8f8f8"></path></g><g transform="translate(2 390)"><path d="M0 -141L70.5 -122.1L122.1 -70.5L141 0L122.1 70.5L70.5 122.1L0 141L-70.5 122.1L-122.1 70.5L-141 0L-122.1 -70.5L-70.5 -122.1Z" fill="#f8f8f8"></path></g><g transform="translate(880 285)"><path d="M0 -93L46.5 -80.5L80.5 -46.5L93 0L80.5 46.5L46.5 80.5L0 93L-46.5 80.5L-80.5 46.5L-93 0L-80.5 -46.5L-46.5 -80.5Z" fill="#f8f8f8"></path></g></g></svg>